<?xml version="1.0" encoding="UTF-8"?> <svg xmlns="http://www.w3.org/2000/svg" width="282" height="39" viewBox="0 0 282 39"><g fill="none" fill-rule="evenodd"><g fill-rule="nonzero"><path fill="#444" d="M82.763 9.981a8.033 8.033 0 0 1-.71 3.428 7.605 7.605 0 0 1-1.916 2.581 8.785 8.785 0 0 1-2.838 1.632c-1.078.381-2.212.575-3.355.573h-3.657v10.631H63.84V1.81h10.066a10.025 10.025 0 0 1 3.355.573 9.01 9.01 0 0 1 2.837 1.608 7.397 7.397 0 0 1 1.917 2.562 8.033 8.033 0 0 1 .748 3.428zm-6.365 0a2.566 2.566 0 0 0-1.074-2.263 4.086 4.086 0 0 0-2.367-.741h-2.708v6.052h2.708a4.161 4.161 0 0 0 2.367-.718 2.6 2.6 0 0 0 1.074-2.33zM98.22 14.68h-.518a7.675 7.675 0 0 0-2.397.38 5.946 5.946 0 0 0-2.066 1.166 5.537 5.537 0 0 0-1.438 2.032 7.517 7.517 0 0 0-.537 2.985v7.583h-6.23V9.63h5.751l.173 3.004a5.255 5.255 0 0 1 2.645-2.58 10.302 10.302 0 0 1 4.151-.761l.465 5.387zM107.18 3.337a1.8 1.8 0 0 1-.364.929 6.657 6.657 0 0 1-.882 1.06 5.89 5.89 0 0 1-1.073.847 1.49 1.49 0 0 1-1.893 0 5.277 5.277 0 0 1-1.055-.848 7.288 7.288 0 0 1-.858-1.06 1.79 1.79 0 0 1-.364-.928c.031-.339.157-.66.364-.93.253-.379.54-.733.858-1.059a6.002 6.002 0 0 1 1.055-.867 1.433 1.433 0 0 1 1.893 0c.386.252.746.542 1.073.867.33.322.626.677.882 1.06a1.8 1.8 0 0 1 .365.929zm-6.408 25.49V9.63h6.365v19.196h-6.365zM123.281 28.826V17.391a2.688 2.688 0 0 0-.733-1.863 2.868 2.868 0 0 0-2.238-.804 3.264 3.264 0 0 0-2.325.804 2.567 2.567 0 0 0-.858 1.926v11.372h-6.317V9.63h5.55l.173 1.926a6.023 6.023 0 0 1 2.3-1.758 9.498 9.498 0 0 1 6.471-.168 6.585 6.585 0 0 1 2.282 1.377 6.294 6.294 0 0 1 1.485 2.157c.372.916.555 1.899.537 2.889v12.773h-6.327zM146.838 14.724h-5.53v6.943a2.08 2.08 0 0 0 .666 1.67 2.58 2.58 0 0 0 1.74.573 5.728 5.728 0 0 0 2.022-.317l-.48 5.08a7.46 7.46 0 0 1-2.966.48 8.473 8.473 0 0 1-2.924-.48 6.8 6.8 0 0 1-2.3-1.378 6.042 6.042 0 0 1-1.486-2.094 6.661 6.661 0 0 1-.518-2.648v-7.83h-3.312V9.63h3.441V5.917l6.02-2.243V9.63h6.107l-.48 5.094zM174.575 28.826V17.011a2.002 2.002 0 0 0-.752-1.632 3.139 3.139 0 0 0-2.042-.612 3.502 3.502 0 0 0-2.171.64 2.02 2.02 0 0 0-.839 1.695v11.724h-6.322V17.011a2.002 2.002 0 0 0-.733-1.628 3.287 3.287 0 0 0-2.128-.616 3.426 3.426 0 0 0-2.152.64 2.02 2.02 0 0 0-.84 1.695v11.724h-6.321V9.63h5.55l.173 1.926a6.005 6.005 0 0 1 2.17-1.695 7.782 7.782 0 0 1 3.505-.722 7.162 7.162 0 0 1 3.355.722 6.82 6.82 0 0 1 2.195 1.738 6.708 6.708 0 0 1 2.602-1.738 10.106 10.106 0 0 1 3.873-.713c2.295 0 4.065.615 5.31 1.844a6.39 6.39 0 0 1 1.87 4.762v13.072h-6.303zM200.51 29.419c-1.949-.142-3.324-.86-4.126-2.158a5.98 5.98 0 0 1-2.435 1.628 9.068 9.068 0 0 1-5.785.106 6.606 6.606 0 0 1-2.258-1.247 5.775 5.775 0 0 1-1.505-1.989 6.23 6.23 0 0 1-.537-2.648 5.423 5.423 0 0 1 1.87-4.3 8.329 8.329 0 0 1 4.754-1.925l3.873-.38v-.68a1.736 1.736 0 0 0-.71-1.444c-.472-.366-1.254-.549-2.343-.549a13.449 13.449 0 0 0-3.226.38 9.559 9.559 0 0 0-2.492.93l-.48-4.743c.927-.453 1.91-.777 2.924-.963 1.188-.252 2.4-.38 3.614-.38 2.723 0 4.873.663 6.452 1.988 1.578 1.326 2.367 3.23 2.367 5.715v5.504c-.046.708.169 1.41.604 1.969a2.637 2.637 0 0 0 1.635.867l-2.196 4.319zm-5.976-8.98l-2.622.265a2.674 2.674 0 0 0-1.956.866 2.583 2.583 0 0 0-.58 1.633c-.004.501.208.98.58 1.314.406.36.936.547 1.476.52a3.255 3.255 0 0 0 2.129-.804c.618-.49.973-1.241.958-2.032l.015-1.762zM225.125 19a11.046 11.046 0 0 1-.795 4.256 9.69 9.69 0 0 1-2.215 3.303 9.82 9.82 0 0 1-3.355 2.118 11.41 11.41 0 0 1-4.15.742 8.719 8.719 0 0 1-2.153-.232 6.3 6.3 0 0 1-1.505-.573v9.991h-6.082V9.63h4.946l.173 1.396a4.25 4.25 0 0 1 2.152-1.445 10.18 10.18 0 0 1 3.183-.481 9.882 9.882 0 0 1 3.503.655 9.746 9.746 0 0 1 3.14 1.926 9.964 9.964 0 0 1 2.281 3.11 9.55 9.55 0 0 1 .877 4.208zm-6.063.298a5.197 5.197 0 0 0-.345-1.926 4.49 4.49 0 0 0-.944-1.483 4.61 4.61 0 0 0-1.438-.997 4.44 4.44 0 0 0-1.807-.36 5.251 5.251 0 0 0-1.999.36 5.063 5.063 0 0 0-1.529.963v7.04a5.07 5.07 0 0 0 1.5.847 5.728 5.728 0 0 0 2.023.337 4.43 4.43 0 0 0 1.807-.361 4.6 4.6 0 0 0 1.438-.997c.417-.431.743-.942.959-1.502a5.192 5.192 0 0 0 .335-1.921zM241.857 23.28a6.231 6.231 0 0 1-.45 2.35 5.253 5.253 0 0 1-1.4 1.969 6.754 6.754 0 0 1-2.396 1.333 10.935 10.935 0 0 1-3.442.482 12.8 12.8 0 0 1-3.657-.482 10.371 10.371 0 0 1-2.622-1.122l-.57-5.421a10.482 10.482 0 0 0 6.58 2.369 2.508 2.508 0 0 0 1.53-.405c.339-.216.548-.588.556-.992.02-.44-.194-.86-.561-1.102-.528-.33-1.09-.6-1.678-.804a10.616 10.616 0 0 1-4.237-2.5 5.31 5.31 0 0 1-1.529-3.85 5.718 5.718 0 0 1 .518-2.456 5.597 5.597 0 0 1 1.462-1.926 6.792 6.792 0 0 1 2.281-1.247 9.193 9.193 0 0 1 2.924-.443 11.855 11.855 0 0 1 3.226.404 8.82 8.82 0 0 1 2.109.823l-.48 4.7a8.05 8.05 0 0 0-4.471-1.315 2.073 2.073 0 0 0-1.333.38c-.303.227-.48.584-.48.964.002.387.197.749.519.962.56.354 1.169.625 1.806.805a9.681 9.681 0 0 1 4.314 2.498 5.653 5.653 0 0 1 1.481 4.026z"></path><path fill="#B3B3B3" d="M246.638 27.565a.888.888 0 0 1-.168.443 3.21 3.21 0 0 1-.935.93.88.88 0 0 1-.479.163.922.922 0 0 1-.445-.164 2.916 2.916 0 0 1-.523-.414 2.886 2.886 0 0 1-.422-.515.667.667 0 0 1 0-.881c.12-.178.262-.34.422-.482.16-.152.335-.288.523-.404a.922.922 0 0 1 .445-.164.88.88 0 0 1 .48.164c.182.119.354.254.512.404.16.142.302.304.422.482.094.128.152.28.168.438zM256.699 28.826v-7.313c0-.3-.046-.597-.14-.882a1.97 1.97 0 0 0-.479-.765 2.395 2.395 0 0 0-.834-.54 3.341 3.341 0 0 0-1.241-.202 3.39 3.39 0 0 0-1.218.203c-.324.117-.621.3-.872.539a2.33 2.33 0 0 0-.522.765 2.253 2.253 0 0 0-.178.882v7.313h-2.33V17.43h2.048l.1 1.136c.398-.46.888-.829 1.438-1.083a5.408 5.408 0 0 1 2.138-.347 5.155 5.155 0 0 1 1.754.289c.514.179.987.457 1.395.818.397.361.711.805.92 1.3.227.546.34 1.133.33 1.724v7.56h-2.31zM271.979 21.479c.005.313-.021.626-.077.934l-1.304 1.29h-6.988c.025.391.125.774.292 1.127.193.414.458.791.782 1.112.364.361.793.65 1.265.848a4.44 4.44 0 0 0 1.778.327 5.94 5.94 0 0 0 3.715-1.184l-.59 2.446a6.18 6.18 0 0 1-1.438.53 8.5 8.5 0 0 1-1.998.201 6.578 6.578 0 0 1-2.358-.428 6.064 6.064 0 0 1-1.975-1.238 6.017 6.017 0 0 1-1.371-1.892 5.674 5.674 0 0 1-.508-2.44c-.018-.89.16-1.77.522-2.582a5.94 5.94 0 0 1 1.342-1.877 5.651 5.651 0 0 1 1.836-1.132 5.729 5.729 0 0 1 2.037-.39 5.647 5.647 0 0 1 2.138.38c.585.228 1.12.566 1.577.997a4.3 4.3 0 0 1 .958 1.392c.23.495.354 1.033.365 1.579zm-2.33.062a2.195 2.195 0 0 0-.182-.857 2.6 2.6 0 0 0-1.313-1.348 2.487 2.487 0 0 0-1.055-.212 3.175 3.175 0 0 0-1.092.203 3.648 3.648 0 0 0-1.803 1.425c-.217.334-.37.707-.45 1.098h5.862c.023-.101.034-.205.033-.309zM281.272 19.26h-3.685v6.316a1.24 1.24 0 0 0 .479 1.07c.356.25.783.378 1.217.365.432.01.862-.04 1.28-.15l-.48 2.042c-.343.08-.696.115-1.049.101a4.773 4.773 0 0 1-1.49-.226 3.542 3.542 0 0 1-1.213-.67 3.128 3.128 0 0 1-.815-1.082 3.539 3.539 0 0 1-.259-1.507v-6.26h-2.277V17.41h2.277v-2.32l2.33-1.185v3.5h4.093l-.408 1.854z"></path></g><g transform="translate(0 1.5)"><path fill="#009EE2" d="M12.26 26.74c-.302.298-.67.566-1.108.566-.44 0-.816-.255-1.109-.565C7.5 24.042 0 18.304 0 11.102 0 4.971 4.993 0 11.152 0c6.158 0 11.151 4.97 11.151 11.102 0 7.202-7.303 12.94-10.043 15.639z"></path><circle cx="11" cy="11" r="5" fill="#FFF"></circle></g><g style="mix-blend-mode:multiply" transform="translate(18 1.5)"><path fill="#E5017E" d="M12.26 26.74c-.302.298-.67.566-1.108.566-.44 0-.816-.255-1.109-.565C7.5 24.042 0 18.304 0 11.102 0 4.971 4.993 0 11.152 0c6.158 0 11.151 4.97 11.151 11.102 0 7.202-7.303 12.94-10.043 15.639z" style="mix-blend-mode:multiply"></path><circle cx="11" cy="11" r="5" fill="#FFF"></circle></g><g style="mix-blend-mode:multiply" transform="translate(36 1.5)"><path fill="#FFEC00" d="M12.26 26.74c-.302.298-.67.566-1.108.566-.44 0-.816-.255-1.109-.565C7.5 24.042 0 18.304 0 11.102 0 4.971 4.993 0 11.152 0c6.158 0 11.151 4.97 11.151 11.102 0 7.202-7.303 12.94-10.043 15.639z"></path><circle cx="11" cy="11" r="5" fill="#FFF"></circle></g></g></svg> 